REM DIRINDEX 1\2,1\3,1\4,1\5
REM DIRNAME cjc044,folder01,folder02,folder03,folder04
TITLE ""
FILE "1800_176.mp3" MP3
  TRACK 01 AUDIO
    TITLE "2:cjc044_6003"
    INDEX 01 00:00:00
  TRACK 02 AUDIO
    TITLE "0:"
    INDEX 01 00:01:07
  TRACK 03 AUDIO
    TITLE "3:cjc044_6004"
    INDEX 01 00:01:56
  TRACK 04 AUDIO
    TITLE "0:"
    INDEX 01 00:02:53
  TRACK 05 AUDIO
    TITLE "4:cjc044_6005"
    INDEX 01 00:03:21
  TRACK 06 AUDIO
    TITLE "0:"
    INDEX 01 00:04:42
  TRACK 07 AUDIO
    TITLE "2:cjc044_6006"
    INDEX 01 00:06:18
  TRACK 08 AUDIO
    TITLE "0:"
    INDEX 01 00:07:31
  TRACK 09 AUDIO
    TITLE "3:cjc044_6007"
    INDEX 01 00:08:05
  TRACK 10 AUDIO
    TITLE "0:"
    INDEX 01 00:09:04
  TRACK 11 AUDIO
    TITLE "4:cjc044_6008"
    INDEX 01 00:09:49
  TRACK 12 AUDIO
    TITLE "0:"
    INDEX 01 00:10:61
  TRACK 13 AUDIO
    TITLE "2:cjc044_6009"
    INDEX 01 00:12:36
  TRACK 14 AUDIO
    TITLE "0:"
    INDEX 01 00:13:71
  TRACK 15 AUDIO
    TITLE "3:cjc044_6010"
    INDEX 01 00:14:43
  TRACK 16 AUDIO
    TITLE "0:"
    INDEX 01 00:15:62
  TRACK 17 AUDIO
    TITLE "4:cjc044_6011"
    INDEX 01 00:16:34
  TRACK 18 AUDIO
    TITLE "0:"
    INDEX 01 00:17:69
  TRACK 19 AUDIO
    TITLE "2:cjc044_6012"
    INDEX 01 00:19:42
  TRACK 20 AUDIO
    TITLE "0:"
    INDEX 01 00:20:59
  TRACK 21 AUDIO
    TITLE "3:cjc044_6013"
    INDEX 01 00:21:33
  TRACK 22 AUDIO
    TITLE "0:"
    INDEX 01 00:22:42
  TRACK 23 AUDIO
    TITLE "4:cjc044_6014"
    INDEX 01 00:23:14
  TRACK 24 AUDIO
    TITLE "0:"
    INDEX 01 00:24:31
  TRACK 25 AUDIO
    TITLE "2:cjc044_6015"
    INDEX 01 00:26:05
  TRACK 26 AUDIO
    TITLE "0:"
    INDEX 01 00:27:43
  TRACK 27 AUDIO
    TITLE "3:cjc044_6016"
    INDEX 01 00:28:15
  TRACK 28 AUDIO
    TITLE "0:"
    INDEX 01 00:29:62
  TRACK 29 AUDIO
    TITLE "4:cjc044_6017"
    INDEX 01 00:30:36
  TRACK 30 AUDIO
    TITLE "0:"
    INDEX 01 00:32:01
  TRACK 31 AUDIO
    TITLE "2:cjc044_6018"
    INDEX 01 00:33:48
  TRACK 32 AUDIO
    TITLE "0:"
    INDEX 01 00:34:71
  TRACK 33 AUDIO
    TITLE "3:cjc044_6019"
    INDEX 01 00:35:43
  TRACK 34 AUDIO
    TITLE "0:"
    INDEX 01 00:36:52
  TRACK 35 AUDIO
    TITLE "4:cjc044_6020"
    INDEX 01 00:37:24
  TRACK 36 AUDIO
    TITLE "0:"
    INDEX 01 00:38:49
  TRACK 37 AUDIO
    TITLE "2:cjc044_6021"
    INDEX 01 00:40:19
  TRACK 38 AUDIO
    TITLE "0:"
    INDEX 01 00:41:55
  TRACK 39 AUDIO
    TITLE "3:cjc044_6022"
    INDEX 01 00:42:25
  TRACK 40 AUDIO
    TITLE "0:"
    INDEX 01 00:43:42
  TRACK 41 AUDIO
    TITLE "4:cjc044_6023"
    INDEX 01 00:44:14
  TRACK 42 AUDIO
    TITLE "0:"
    INDEX 01 00:45:49
  TRACK 43 AUDIO
    TITLE "2:cjc044_6024"
    INDEX 01 00:47:25
  TRACK 44 AUDIO
    TITLE "0:"
    INDEX 01 00:48:32
  TRACK 45 AUDIO
    TITLE "3:cjc044_6025"
    INDEX 01 00:49:08
  TRACK 46 AUDIO
    TITLE "0:"
    INDEX 01 00:50:72
  TRACK 47 AUDIO
    TITLE "4:cjc044_6026"
    INDEX 01 00:51:48
  TRACK 48 AUDIO
    TITLE "0:"
    INDEX 01 00:52:57
  TRACK 49 AUDIO
    TITLE "2:cjc044_6027"
    INDEX 01 00:54:30
  TRACK 50 AUDIO
    TITLE "0:"
    INDEX 01 00:55:53
  TRACK 51 AUDIO
    TITLE "3:cjc044_6028"
    INDEX 01 00:56:24
  TRACK 52 AUDIO
    TITLE "0:"
    INDEX 01 00:58:22
  TRACK 53 AUDIO
    TITLE "4:cjc044_6029"
    INDEX 01 00:58:69
  TRACK 54 AUDIO
    TITLE "0:"
    INDEX 01 01:00:17
  TRACK 55 AUDIO
    TITLE "2:cjc044_6030"
    INDEX 01 01:01:62
  TRACK 56 AUDIO
    TITLE "0:"
    INDEX 01 01:02:69
  TRACK 57 AUDIO
    TITLE "3:cjc044_6031"
    INDEX 01 01:03:45
  TRACK 58 AUDIO
    TITLE "0:"
    INDEX 01 01:04:27
  TRACK 59 AUDIO
    TITLE "4:cjc044_6032"
    INDEX 01 01:04:74
  TRACK 60 AUDIO
    TITLE "0:"
    INDEX 01 01:06:12
  TRACK 61 AUDIO
    TITLE "2:cjc044_6033"
    INDEX 01 01:07:64
  TRACK 62 AUDIO
    TITLE "0:"
    INDEX 01 01:08:74
  TRACK 63 AUDIO
    TITLE "3:cjc044_6034"
    INDEX 01 01:09:44
  TRACK 64 AUDIO
    TITLE "0:"
    INDEX 01 01:10:55
  TRACK 65 AUDIO
    TITLE "4:cjc044_6035"
    INDEX 01 01:11:29
  TRACK 66 AUDIO
    TITLE "0:"
    INDEX 01 01:12:40
  TRACK 67 AUDIO
    TITLE "2:cjc044_6036"
    INDEX 01 01:14:14
  TRACK 68 AUDIO
    TITLE "0:"
    INDEX 01 01:15:25
  TRACK 69 AUDIO
    TITLE "3:cjc044_6037"
    INDEX 01 01:15:72
  TRACK 70 AUDIO
    TITLE "0:"
    INDEX 01 01:17:10
  TRACK 71 AUDIO
    TITLE "4:cjc044_6038"
    INDEX 01 01:17:55
  TRACK 72 AUDIO
    TITLE "0:"
    INDEX 01 01:18:70
  TRACK 73 AUDIO
    TITLE "2:cjc044_6039"
    INDEX 01 01:20:42
  TRACK 74 AUDIO
    TITLE "0:"
    INDEX 01 01:21:59
  TRACK 75 AUDIO
    TITLE "3:cjc044_6040"
    INDEX 01 01:22:33
  TRACK 76 AUDIO
    TITLE "0:"
    INDEX 01 01:23:34
  TRACK 77 AUDIO
    TITLE "4:cjc044_6041"
    INDEX 01 01:24:08
  TRACK 78 AUDIO
    TITLE "0:"
    INDEX 01 01:25:27
  TRACK 79 AUDIO
    TITLE "2:cjc044_6042"
    INDEX 01 01:26:74
  TRACK 80 AUDIO
    TITLE "0:"
    INDEX 01 01:27:73
  TRACK 81 AUDIO
    TITLE "3:cjc044_6043"
    INDEX 01 01:28:49
  TRACK 82 AUDIO
    TITLE "0:"
    INDEX 01 01:29:56
  TRACK 83 AUDIO
    TITLE "4:cjc044_6044"
    INDEX 01 01:30:26
  TRACK 84 AUDIO
    TITLE "0:"
    INDEX 01 01:31:26
  TRACK 85 AUDIO
    TITLE "2:cjc044_6045"
    INDEX 01 01:33:01
  TRACK 86 AUDIO
    TITLE "0:"
    INDEX 01 01:34:18
  TRACK 87 AUDIO
    TITLE "3:cjc044_6046"
    INDEX 01 01:34:67
  TRACK 88 AUDIO
    TITLE "0:"
    INDEX 01 01:35:59
  TRACK 89 AUDIO
    TITLE "4:cjc044_6047"
    INDEX 01 01:36:33
  TRACK 90 AUDIO
    TITLE "0:"
    INDEX 01 01:37:50
  TRACK 91 AUDIO
    TITLE "2:cjc044_6048"
    INDEX 01 01:39:25
  TRACK 92 AUDIO
    TITLE "0:"
    INDEX 01 01:40:48
  TRACK 93 AUDIO
    TITLE "3:cjc044_6049"
    INDEX 01 01:41:22
  TRACK 94 AUDIO
    TITLE "0:"
    INDEX 01 01:42:33
  TRACK 95 AUDIO
    TITLE "4:cjc044_6050"
    INDEX 01 01:43:05
  TRACK 96 AUDIO
    TITLE "0:"
    INDEX 01 01:44:28
  TRACK 97 AUDIO
    TITLE "2:cjc044_6051"
    INDEX 01 01:46:06
  TRACK 98 AUDIO
    TITLE "0:"
    INDEX 01 01:47:33
  TRACK 99 AUDIO
    TITLE "3:cjc044_6052"
    INDEX 01 01:48:03
  TRACK 100 AUDIO
    TITLE "0:"
    INDEX 01 01:49:57
  TRACK 101 AUDIO
    TITLE "4:cjc044_6053"
    INDEX 01 01:50:29
  TRACK 102 AUDIO
    TITLE "0:"
    INDEX 01 01:51:56
  TRACK 103 AUDIO
    TITLE "2:cjc044_6054"
    INDEX 01 01:53:29
  TRACK 104 AUDIO
    TITLE "0:"
    INDEX 01 01:54:56
  TRACK 105 AUDIO
    TITLE "3:cjc044_6055"
    INDEX 01 01:55:28
  TRACK 106 AUDIO
    TITLE "0:"
    INDEX 01 01:57:25
  TRACK 107 AUDIO
    TITLE "4:cjc044_6056"
    INDEX 01 01:57:74
  TRACK 108 AUDIO
    TITLE "0:"
    INDEX 01 01:59:30
